<?xml version="1.0" standalone="no"?>
<!DOCTYPE svg PUBLIC "-//W3C//DTD SVG 20010904//EN"
 "http://www.w3.org/TR/2001/REC-SVG-20010904/DTD/svg10.dtd">
<svg version="1.0" xmlns="http://www.w3.org/2000/svg"
 width="300.000000pt" height="300.000000pt" viewBox="0 0 300.000000 300.000000"
 preserveAspectRatio="xMidYMid meet">
<metadata>
Created by potrace 1.10, written by Peter Selinger 2001-2011
</metadata>
<g transform="translate(0.000000,300.000000) scale(0.100000,-0.100000)"
fill="#000000" stroke="none">
<path d="M1582 2863 c-24 -128 -25 -152 -8 -159 23 -9 26 -3 33 60 3 31 9 56
13 56 4 0 18 -25 30 -55 12 -30 26 -55 31 -55 5 0 26 22 48 49 21 28 41 48 43
46 2 -3 -1 -31 -7 -62 -9 -42 -9 -60 -1 -65 26 -18 34 -5 46 75 6 45 14 94 17
110 5 23 2 27 -18 27 -17 -1 -36 -17 -68 -60 -25 -33 -48 -60 -51 -60 -3 0
-18 34 -34 75 -37 96 -58 101 -74 18z"/>
<path d="M1872 2773 c-17 -49 -32 -94 -34 -101 -2 -9 24 -23 74 -41 63 -23 78
-25 83 -14 3 8 5 16 5 18 0 2 -25 12 -56 21 -51 17 -55 20 -49 43 4 14 8 27 9
28 1 2 24 -4 50 -13 26 -9 50 -14 53 -11 13 14 -8 34 -46 46 -41 12 -48 24
-32 50 8 12 16 12 53 -2 53 -21 64 -21 71 -3 4 10 -15 21 -66 40 -40 14 -75
26 -78 26 -4 0 -20 -39 -37 -87z"/>
<path d="M1187 2823 c-9 -10 -17 -12 -17 -6 0 11 -40 6 -40 -6 0 -3 7 -39 17
-78 15 -66 19 -73 41 -73 21 0 23 3 18 23 -4 12 -10 41 -13 65 -5 38 -3 44 16
49 12 3 21 13 21 24 0 24 -20 24 -43 2z"/>
<path d="M1388 2803 c-57 -6 -51 -33 7 -33 38 0 45 3 45 20 0 11 -3 19 -7 18
-5 -1 -25 -3 -45 -5z"/>
<path d="M976 2759 c-48 -38 -29 -130 30 -142 55 -10 132 29 107 54 -8 8 -19
6 -36 -6 -27 -17 -68 -17 -74 0 -2 6 22 19 52 30 59 20 67 33 35 65 -26 26
-80 26 -114 -1z m80 -20 c7 -13 -9 -26 -44 -35 -32 -9 -39 2 -17 26 20 22 50
26 61 9z"/>
<path d="M2063 2685 c-50 -93 -51 -95 -30 -107 14 -7 22 -7 24 -1 2 6 10 18
17 28 10 14 16 16 34 6 16 -9 22 -21 22 -48 0 -22 7 -41 18 -49 27 -21 30 -17
25 24 -5 35 -3 39 28 52 20 9 38 26 43 41 16 47 0 75 -63 113 -32 20 -60 36
-62 36 -2 0 -27 -43 -56 -95z m123 12 c50 -43 6 -94 -55 -62 l-31 15 17 35
c20 41 32 43 69 12z"/>
<path d="M804 2675 c-13 -14 -28 -24 -32 -23 -4 1 -14 -2 -23 -6 -14 -6 -8
-21 39 -99 30 -51 56 -94 58 -95 1 -2 12 -1 24 3 l21 7 -21 34 c-21 33 -21 34
-2 34 11 0 31 9 46 21 20 16 26 29 26 60 0 79 -82 118 -136 64z m81 -35 c20
-23 14 -64 -11 -74 -44 -17 -84 35 -58 73 19 26 46 27 69 1z"/>
<path d="M2265 2569 c-64 -75 -67 -81 -51 -97 16 -16 18 -15 40 13 13 17 33
41 44 55 l21 25 1 -91 c0 -131 10 -134 95 -33 64 76 67 81 51 97 -16 15 -18
15 -29 1 -7 -8 -27 -33 -44 -54 l-33 -40 0 91 c0 131 -10 134 -95 33z"/>
<path d="M645 2568 c-62 -33 -73 -101 -24 -142 42 -35 74 -33 115 8 43 43 44
77 5 117 -31 30 -62 36 -96 17z m65 -48 c24 -24 25 -38 3 -62 -20 -22 -41 -23
-65 -1 -22 20 -23 46 -2 67 21 21 40 20 64 -4z"/>
<path d="M462 2487 c-11 -13 0 -26 121 -137 34 -31 39 -33 53 -19 14 14 7 23
-66 92 -45 43 -85 77 -90 77 -4 0 -12 -6 -18 -13z"/>
<path d="M2536 2364 c-20 -19 -20 -45 -1 -91 21 -50 19 -65 -7 -61 -16 2 -30
17 -43 45 -12 26 -27 42 -37 43 -22 0 -23 -12 -2 -53 27 -53 55 -77 89 -77 56
0 70 41 39 115 -29 69 23 76 56 7 15 -33 58 -48 46 -16 -3 9 -6 20 -6 24 0 5
-14 25 -31 45 -34 39 -76 47 -103 19z"/>
<path d="M439 2355 c-33 -18 -52 -63 -43 -99 8 -35 60 -68 94 -61 50 11 108
105 65 105 -8 0 -15 -6 -15 -14 0 -8 -12 -24 -26 -35 -55 -43 -59 -17 -8 46
20 24 35 45 33 47 -12 10 -50 26 -61 26 -7 -1 -25 -7 -39 -15z m51 -31 c0 -12
-42 -64 -51 -64 -13 0 -11 44 3 58 12 12 48 17 48 6z"/>
<path d="M336 2224 c-7 -19 4 -42 38 -73 42 -40 34 -49 -31 -38 -50 8 -58 8
-70 -9 -12 -17 -11 -19 9 -25 13 -3 53 -9 90 -12 61 -6 69 -4 78 14 9 16 2 30
-42 89 -29 38 -56 69 -59 69 -4 1 -10 -6 -13 -15z"/>
<path d="M2639 2203 c-1 -5 -2 -14 -3 -21 0 -7 -19 -23 -41 -35 -46 -26 -55
-55 -30 -93 13 -21 19 -23 31 -13 10 8 12 15 4 23 -18 18 -11 31 26 51 34 18
37 18 49 2 7 -10 19 -15 29 -11 12 5 13 10 5 26 -9 17 -8 23 5 30 18 10 19 17
7 37 -7 10 -13 11 -30 2 -14 -8 -21 -8 -21 -1 0 11 -29 14 -31 3z"/>
<path d="M2712 2058 c-9 -9 -7 -17 9 -34 21 -22 23 -54 4 -61 -5 -1 -19 14
-30 35 -13 23 -28 38 -43 40 -49 7 -68 -41 -35 -88 10 -14 18 -29 19 -35 0 -5
2 -16 2 -23 2 -15 24 -10 89 20 53 25 61 54 33 114 -23 47 -29 51 -48 32z
m-32 -84 c13 -34 13 -34 -9 -34 -24 0 -45 25 -37 45 9 24 36 18 46 -11z"/>
<path d="M260 2027 c-51 -26 -64 -90 -26 -133 28 -34 84 -38 115 -10 23 21 43
80 35 101 -9 23 -34 4 -34 -26 0 -18 -8 -34 -22 -44 -31 -21 -33 -6 -9 59 l20
54 -22 6 c-29 8 -28 8 -57 -7z m36 -43 c-3 -9 -9 -27 -12 -40 -3 -13 -12 -24
-19 -24 -21 0 -27 31 -10 56 18 27 51 34 41 8z"/>
<path d="M2710 1867 c-49 -25 -59 -81 -24 -134 18 -28 44 -30 44 -3 0 11 -4
20 -10 20 -16 0 -23 49 -10 65 16 19 64 19 79 1 6 -7 10 -28 9 -46 -4 -42 18
-51 32 -14 15 39 -4 90 -40 109 -35 18 -48 18 -80 2z"/>
<path d="M141 1821 c-22 -23 -32 -48 -40 -97 -7 -37 -11 -67 -9 -68 2 -1 35
-7 73 -14 39 -6 84 -14 101 -18 38 -7 43 3 51 96 5 60 3 69 -19 94 -19 23 -35
30 -76 34 -48 4 -54 2 -81 -27z m102 -22 c12 -7 25 -17 29 -23 10 -14 10 -94
1 -99 -12 -7 -132 17 -134 26 -4 25 15 79 34 92 26 18 41 19 70 4z"/>
<path d="M2875 1695 c-5 -2 -49 -7 -97 -10 -85 -7 -88 -8 -88 -31 0 -21 4 -23
23 -19 15 4 28 1 36 -9 11 -13 8 -20 -18 -42 -22 -19 -31 -34 -31 -57 l0 -31
43 42 c23 23 46 42 50 42 3 0 22 -14 42 -31 l35 -31 0 25 c0 18 -12 36 -41 59
-35 28 -38 33 -22 39 10 4 39 8 66 8 43 1 47 3 47 26 0 24 -15 30 -45 20z"/>
<path d="M250 1486 l-44 -46 -38 37 -38 37 0 -29 c0 -22 9 -37 35 -58 19 -15
35 -32 35 -37 0 -6 -27 -10 -60 -10 -58 0 -60 -1 -60 -26 0 -26 1 -27 53 -20
28 3 80 6 115 6 59 0 62 1 62 25 0 21 -5 25 -29 25 -44 0 -49 19 -12 52 25 22
32 35 29 59 l-3 30 -45 -45z"/>
<path d="M2696 1385 c-3 -11 -8 -45 -11 -75 -5 -45 -2 -61 14 -87 40 -63 137
-67 176 -6 16 24 40 141 31 150 -3 3 -50 13 -105 22 -100 17 -100 17 -105 -4z
m151 -52 c19 -4 21 -10 16 -36 -9 -48 -21 -66 -48 -73 -64 -16 -103 24 -91 91
l7 37 47 -7 c26 -3 57 -9 69 -12z"/>
<path d="M266 1303 c-4 -10 -1 -20 9 -25 8 -5 15 -22 15 -39 0 -22 -6 -32 -26
-41 -36 -17 -59 0 -59 43 0 45 -12 64 -31 48 -29 -24 -7 -118 31 -133 89 -34
163 63 104 138 -24 30 -34 33 -43 9z"/>
<path d="M2651 1136 c-13 -13 -25 -43 -28 -66 -5 -37 -4 -42 13 -38 13 2 21
14 24 37 5 32 32 62 45 49 3 -3 -3 -30 -15 -59 -11 -30 -20 -57 -20 -61 0 -5
16 -8 35 -8 50 0 85 36 85 89 0 31 -6 44 -26 60 -36 29 -85 27 -113 -3z m104
-61 c0 -26 -27 -56 -39 -44 -9 9 17 80 28 76 6 -2 11 -16 11 -32z"/>
<path d="M295 1126 c-72 -30 -75 -33 -75 -72 0 -37 24 -94 40 -94 18 0 19 18
5 48 -15 29 -12 62 6 62 5 0 15 -15 22 -32 20 -49 42 -63 72 -50 30 14 34 55
8 92 -10 14 -16 32 -15 42 5 26 -9 27 -63 4z m57 -61 c13 -28 -1 -53 -22 -40
-14 9 -29 47 -23 58 9 16 34 6 45 -18z"/>
<path d="M397 984 c-4 -4 -4 -17 -1 -29 4 -18 -2 -27 -30 -44 -37 -23 -56 -21
-56 5 0 12 -4 12 -21 4 -17 -10 -18 -14 -8 -27 11 -12 10 -17 -4 -28 -25 -18
-11 -48 19 -41 13 4 24 1 26 -6 6 -16 28 0 28 20 0 10 17 25 40 35 46 21 60
55 40 93 -14 25 -22 29 -33 18z"/>
<path d="M2560 941 c-9 -18 -3 -30 47 -92 52 -65 58 -69 66 -51 8 17 2 30 -31
69 -23 26 -40 49 -38 50 2 2 30 -1 63 -5 54 -7 62 -6 72 11 7 10 11 20 9 22
-2 1 -42 6 -90 10 -81 6 -87 5 -98 -14z"/>
<path d="M422 844 c-26 -18 -29 -56 -7 -107 13 -31 13 -36 -1 -48 -14 -11 -20
-9 -40 14 -13 16 -24 37 -24 48 0 21 -8 23 -30 9 -13 -8 -12 -14 5 -46 28 -51
66 -78 99 -70 42 10 52 45 30 105 -14 39 -15 54 -6 63 16 16 48 -14 62 -58 13
-37 40 -46 40 -14 0 30 -26 75 -56 99 -32 25 -43 26 -72 5z"/>
<path d="M2474 796 c-34 -34 -46 -76 -21 -76 6 1 21 15 32 33 20 32 55 49 55
27 0 -6 -16 -31 -35 -54 -36 -45 -35 -54 7 -69 28 -10 78 13 93 44 22 42 18
67 -14 100 -40 39 -74 38 -117 -5z m106 -60 c0 -27 -18 -46 -42 -46 -23 0 -23
3 4 44 24 37 38 38 38 2z"/>
<path d="M2376 684 c-4 -10 -1 -23 6 -29 7 -6 44 -40 81 -75 62 -59 69 -62 84
-47 15 15 10 21 -62 89 -85 80 -99 88 -109 62z"/>
<path d="M628 650 c-1 -5 -32 -41 -67 -80 -60 -67 -63 -73 -47 -88 16 -16 20
-14 58 31 22 26 43 47 47 47 3 0 5 -37 3 -83 -3 -67 0 -86 13 -97 8 -7 17 -11
18 -9 1 2 33 39 71 82 65 74 68 79 50 92 -17 13 -23 9 -66 -38 l-47 -52 6 87
c4 64 2 92 -7 103 -14 17 -27 19 -32 5z"/>
<path d="M2282 595 c-16 -14 -33 -36 -36 -50 -8 -30 15 -80 43 -95 72 -38 157
42 126 117 -24 57 -84 70 -133 28z m80 -32 c31 -28 18 -83 -21 -83 -42 0 -68
69 -33 89 24 14 33 13 54 -6z"/>
<path d="M2141 561 c-12 -8 -12 -13 2 -35 23 -35 21 -46 -7 -46 -29 0 -66 -42
-66 -74 0 -22 24 -64 44 -78 23 -16 77 -8 100 15 13 12 30 23 37 25 8 2 17 7
21 10 7 7 -96 185 -110 189 -4 2 -13 -1 -21 -6z m64 -145 c8 -24 6 -31 -14
-47 -17 -14 -27 -16 -42 -9 -27 15 -38 41 -28 68 7 19 15 23 41 20 26 -2 35
-9 43 -32z"/>
<path d="M811 479 c3 -39 1 -43 -25 -50 -49 -13 -70 -64 -46 -109 10 -18 118
-86 125 -79 2 2 26 44 54 93 48 83 50 89 34 102 -15 11 -20 11 -28 -2 -30 -46
-29 -46 -53 -24 -14 13 -22 33 -22 53 0 22 -7 36 -21 45 -20 13 -20 11 -18
-29z m69 -118 c0 -3 -9 -21 -20 -39 l-21 -34 -31 24 c-41 32 -44 42 -19 67 20
20 22 20 56 4 19 -9 35 -19 35 -22z"/>
<path d="M986 395 c-6 -16 9 -26 67 -44 38 -13 44 -24 27 -51 -8 -13 -14 -13
-54 2 -24 9 -47 14 -50 11 -17 -17 -1 -34 40 -45 41 -11 45 -15 39 -38 -4 -14
-8 -26 -9 -28 -2 -1 -26 8 -55 20 -44 18 -54 19 -61 7 -5 -7 -6 -17 -2 -20 9
-8 145 -60 148 -56 1 1 16 42 34 92 18 50 35 96 37 103 3 6 -1 12 -9 12 -8 0
-42 11 -76 25 -73 29 -68 29 -76 10z"/>
<path d="M1920 373 c-27 -22 -29 -28 -16 -35 11 -6 25 -2 45 13 19 14 36 19
50 14 34 -10 25 -20 -39 -46 -33 -13 -60 -27 -60 -30 0 -14 62 -59 81 -59 28
0 75 26 83 45 36 95 -66 164 -144 98z m110 -73 c0 -27 -34 -44 -60 -30 -27 14
-26 18 13 34 43 19 47 19 47 -4z"/>
<path d="M1827 352 c-14 -3 -17 -10 -13 -25 19 -70 18 -95 -3 -109 -23 -14
-29 -48 -7 -48 7 0 19 6 25 14 6 7 22 11 36 8 14 -2 25 0 25 4 0 13 -38 155
-42 158 -2 1 -11 0 -21 -2z"/>
<path d="M1170 258 c-6 -46 -14 -95 -17 -110 -10 -50 30 -35 83 30 25 31 49
58 53 60 3 1 19 -32 34 -73 22 -57 33 -75 47 -75 14 0 21 10 25 38 3 20 12 67
19 105 7 37 9 67 5 67 -4 0 -14 3 -22 6 -12 4 -17 -5 -22 -43 -12 -90 -16 -93
-40 -28 -12 32 -27 61 -33 63 -5 1 -29 -21 -52 -50 l-43 -53 7 50 c12 91 12
90 -10 93 -20 3 -23 -4 -34 -80z"/>
<path d="M1580 219 c0 -17 4 -20 23 -15 12 3 32 6 45 6 13 0 22 6 22 15 0 11
-12 15 -45 15 -39 0 -45 -3 -45 -21z"/>
</g>
</svg>
