<?xml version="1.0" standalone="no"?>
<!DOCTYPE svg PUBLIC "-//W3C//DTD SVG 20010904//EN"
 "http://www.w3.org/TR/2001/REC-SVG-20010904/DTD/svg10.dtd">
<svg version="1.0" xmlns="http://www.w3.org/2000/svg"
 width="300.000000pt" height="300.000000pt" viewBox="0 0 300.000000 300.000000"
 preserveAspectRatio="xMidYMid meet">
<metadata>
Created by potrace 1.10, written by Peter Selinger 2001-2011
</metadata>
<g transform="translate(0.000000,300.000000) scale(0.100000,-0.100000)"
fill="#000000" stroke="none">
<path d="M1399 2918 c-9 -7 -27 -39 -40 -70 -13 -32 -26 -58 -29 -58 -3 0 -25
25 -48 55 -27 35 -51 55 -64 55 -16 0 -19 -5 -15 -22 3 -13 8 -50 12 -83 9
-84 14 -95 36 -95 15 0 19 5 15 18 -11 41 -17 102 -9 102 4 -1 23 -21 41 -46
38 -52 51 -49 72 16 20 60 28 58 36 -10 7 -61 9 -66 32 -52 10 7 10 27 1 105
-7 53 -15 97 -19 97 -3 0 -13 -6 -21 -12z"/>
<path d="M1874 2877 c-7 -20 -64 -191 -64 -193 0 -1 9 -4 20 -7 16 -4 22 4 35
44 18 53 47 72 72 46 14 -14 14 -20 -1 -63 -16 -49 -10 -72 16 -61 17 6 43
108 35 131 -8 21 -54 38 -78 31 -23 -8 -23 -7 -4 38 14 33 13 35 -6 40 -11 3
-22 0 -25 -6z"/>
<path d="M1501 2871 c-21 -14 -2 -33 25 -27 26 7 64 -8 64 -24 0 -6 -20 -10
-44 -10 -49 0 -69 -17 -64 -52 4 -29 51 -47 78 -30 12 7 20 8 20 2 0 -5 9 -10
20 -10 17 0 20 7 22 43 2 68 -1 81 -23 100 -22 18 -75 23 -98 8z m82 -88 c12
-11 -14 -33 -39 -33 -23 0 -32 19 -17 33 8 9 48 9 56 0z"/>
<path d="M1686 2838 c-39 -35 -42 -69 -11 -106 21 -26 34 -32 65 -32 42 0 67
19 48 38 -7 7 -15 8 -28 0 -35 -22 -75 18 -59 60 6 16 16 22 39 22 16 0 30 -4
30 -10 0 -5 9 -10 20 -10 30 0 24 27 -10 45 -40 21 -65 19 -94 -7z"/>
<path d="M2072 2798 c4 -30 43 -33 43 -3 0 13 -8 21 -23 23 -20 3 -23 0 -20
-20z"/>
<path d="M1052 2746 c-35 -11 -42 -44 -8 -38 43 8 66 22 60 37 -7 17 -6 17
-52 1z"/>
<path d="M2023 2690 c-29 -66 -30 -71 -13 -80 15 -8 22 0 49 62 26 56 29 73
19 79 -21 14 -23 12 -55 -61z"/>
<path d="M870 2720 c-6 -11 -15 -18 -20 -15 -4 3 -15 2 -24 -1 -13 -5 -10 -17
20 -75 37 -72 44 -78 62 -56 8 10 6 22 -8 45 -24 39 -25 68 -5 80 10 5 13 15
9 25 -8 23 -21 21 -34 -3z"/>
<path d="M2128 2699 c-67 -105 -70 -112 -56 -120 21 -14 26 -11 49 31 25 45
42 54 70 40 26 -14 24 -33 -8 -81 -22 -34 -24 -42 -12 -50 8 -5 17 -9 21 -9
12 0 58 89 58 113 0 27 -28 57 -54 57 -10 0 -26 10 -35 22 l-18 22 -15 -25z"/>
<path d="M723 2640 c-82 -34 -57 -150 33 -150 30 0 84 37 84 59 0 22 -20 20
-44 -4 -14 -14 -32 -25 -40 -25 -31 0 -24 18 19 49 25 18 45 36 45 40 0 25
-63 45 -97 31z m45 -29 c11 -6 7 -13 -16 -30 -17 -11 -33 -21 -36 -21 -14 0
-5 40 12 49 21 13 24 13 40 2z"/>
<path d="M2261 2554 c-36 -46 -20 -98 39 -129 37 -19 40 -19 40 4 0 12 -9 21
-25 25 -22 6 -46 49 -33 61 2 2 25 -14 50 -36 45 -38 47 -39 57 -20 31 58 -6
121 -71 121 -28 0 -42 -7 -57 -26z m97 -16 c12 -12 17 -48 6 -48 -15 0 -64 42
-59 51 9 13 39 11 53 -3z"/>
<path d="M578 2525 c-15 -8 -29 -23 -33 -34 -3 -10 -15 -21 -26 -24 -12 -3
-20 -10 -18 -15 2 -5 34 -42 71 -82 58 -63 69 -71 83 -60 14 12 13 16 -11 42
-22 22 -24 28 -11 28 9 0 26 9 37 20 59 59 -19 164 -92 125z m54 -42 c39 -35
10 -91 -38 -73 -46 18 -35 80 15 89 3 1 13 -6 23 -16z"/>
<path d="M2485 2384 c-38 -31 -71 -59 -73 -63 -3 -10 77 -111 88 -111 19 0 21
23 3 43 -48 55 -49 51 22 107 53 42 63 55 54 66 -6 8 -14 14 -18 14 -3 0 -37
-25 -76 -56z"/>
<path d="M443 2378 c-12 -6 -29 -26 -38 -45 -47 -99 90 -161 140 -63 20 39 19
54 -7 84 -27 30 -64 39 -95 24z m59 -45 c32 -29 16 -73 -27 -73 -58 0 -59 88
-1 90 5 0 18 -7 28 -17z"/>
<path d="M280 2265 c-16 -19 -22 -13 82 -79 62 -38 89 -51 97 -43 18 18 14 23
-51 64 -35 22 -75 47 -89 56 -24 16 -27 16 -39 2z"/>
<path d="M2569 2245 c-35 -19 -51 -58 -38 -92 13 -35 38 -63 56 -63 19 0 16
17 -7 40 -21 21 -27 55 -11 64 5 3 21 -15 37 -41 15 -27 28 -50 30 -52 6 -7
36 23 45 46 12 32 -8 81 -42 98 -34 18 -37 18 -70 0z m75 -46 c14 -21 12 -49
-5 -49 -8 0 -39 51 -39 65 0 14 30 3 44 -16z"/>
<path d="M280 2130 c-62 -62 0 -163 79 -130 32 13 66 71 57 97 -9 21 -29 11
-33 -17 -4 -29 -21 -50 -39 -50 -19 0 -18 9 6 58 11 22 20 46 20 52 0 18 -69
11 -90 -10z m60 -13 c0 -2 -8 -21 -19 -42 -17 -36 -19 -37 -29 -18 -8 15 -7
25 4 41 12 18 44 31 44 19z"/>
<path d="M2705 2090 c-3 -5 1 -20 9 -32 9 -12 16 -30 16 -40 0 -30 -25 -20
-43 17 -16 34 -26 40 -57 35 -34 -5 -41 -61 -11 -87 11 -9 18 -20 15 -25 -3
-4 -1 -14 3 -23 7 -12 16 -11 60 9 69 33 79 53 54 111 -19 44 -34 55 -46 35z
m-30 -80 c15 -28 14 -30 -4 -30 -24 0 -45 25 -37 45 9 23 24 18 41 -15z"/>
<path d="M210 1992 c0 -10 19 -34 43 -53 l42 -34 -60 -10 c-42 -8 -61 -15 -63
-27 -3 -15 6 -16 75 -11 43 3 81 8 85 12 21 20 9 44 -47 90 -65 56 -75 60 -75
33z"/>
<path d="M2714 1908 c-53 -16 -61 -22 -57 -39 4 -14 11 -18 22 -13 9 3 35 8
57 11 36 5 43 2 48 -15 5 -14 13 -18 26 -15 24 6 25 16 5 33 -8 7 -13 16 -10
20 8 12 -6 40 -19 39 -6 -1 -39 -10 -72 -21z"/>
<path d="M179 1807 c-27 -20 -41 -56 -34 -88 14 -61 96 -81 134 -33 22 28 29
98 12 109 -14 8 -26 -16 -22 -43 1 -13 -5 -32 -15 -43 -17 -19 -36 -17 -29 4
3 7 9 33 14 60 8 46 8 47 -18 47 -14 0 -33 -6 -42 -13z m37 -43 c-3 -9 -6 -27
-6 -40 0 -29 -15 -31 -30 -4 -8 14 -8 26 0 40 13 24 45 28 36 4z"/>
<path d="M2770 1795 c-8 -2 -31 -6 -51 -10 -31 -4 -36 -9 -32 -25 5 -18 11
-19 57 -14 41 5 54 3 66 -11 22 -27 0 -49 -59 -59 -38 -7 -50 -14 -46 -24 3
-7 5 -17 5 -22 0 -7 26 -3 108 15 30 7 45 47 30 83 -6 15 -10 37 -9 50 2 18
-2 22 -26 21 -15 -1 -35 -3 -43 -4z"/>
<path d="M134 1626 c-38 -17 -46 -33 -53 -118 l-6 -68 80 0 c44 0 90 -3 103
-6 21 -6 22 -4 22 57 0 73 -24 123 -66 139 -32 13 -42 12 -80 -4z m80 -48 c16
-15 26 -36 28 -58 l3 -35 -67 -3 -68 -3 0 31 c0 40 16 69 43 80 32 13 33 12
61 -12z"/>
<path d="M2901 1601 c-17 -11 -5 -51 15 -51 8 0 17 7 21 16 8 21 -18 46 -36
35z"/>
<path d="M2768 1593 c-50 -3 -58 -7 -58 -23 0 -17 7 -20 43 -20 75 0 118 11
115 29 -4 18 -16 19 -100 14z"/>
<path d="M2710 1490 c0 -17 7 -20 48 -20 53 0 72 -12 72 -46 0 -28 -27 -38
-80 -29 -38 6 -40 5 -40 -19 0 -25 2 -26 56 -26 30 0 64 4 74 10 24 13 33 55
19 82 -9 17 -9 23 0 26 6 2 11 12 11 23 0 17 -8 19 -80 19 -73 0 -80 -2 -80
-20z"/>
<path d="M249 1300 l-36 -43 -37 22 c-36 23 -36 23 -36 2 0 -13 15 -30 42 -47
47 -30 42 -37 -34 -48 -50 -7 -54 -11 -39 -35 8 -12 21 -12 93 3 45 10 91 20
101 23 24 6 17 38 -8 39 -11 1 -26 2 -32 3 -20 2 -15 22 10 50 17 19 22 33 18
50 -6 24 -7 23 -42 -19z"/>
<path d="M2645 1307 c-20 -49 -19 -100 3 -119 9 -9 50 -23 91 -32 60 -14 76
-15 82 -4 12 18 11 28 -3 28 -6 0 -4 7 5 18 23 25 21 78 -3 102 -45 45 -120
11 -120 -55 0 -37 -8 -43 -28 -23 -16 16 -15 49 3 75 13 18 13 22 0 33 -13 10
-17 7 -30 -23z m155 -42 c7 -8 10 -25 6 -39 -12 -48 -76 -41 -76 8 0 42 45 62
70 31z"/>
<path d="M290 1131 c0 -10 7 -21 15 -25 18 -7 20 -47 3 -64 -29 -29 -83 -4
-76 35 3 21 -9 43 -23 43 -18 0 -9 -77 12 -104 34 -43 99 -35 125 16 12 24 13
36 4 64 -6 19 -20 39 -30 44 -26 14 -30 13 -30 -9z"/>
<path d="M2604 1002 c-16 -36 -30 -69 -32 -73 -2 -3 4 -9 13 -13 12 -4 21 6
37 44 18 43 24 50 42 44 31 -10 32 -11 8 -58 -18 -38 -19 -45 -6 -50 9 -3 17
-6 18 -6 2 0 11 20 20 44 16 42 19 44 41 34 l24 -11 -24 -47 c-24 -47 -24 -60
1 -60 17 0 72 132 57 137 -6 2 -47 21 -90 42 l-80 39 -29 -66z"/>
<path d="M339 977 c-80 -48 -89 -79 -40 -137 26 -31 30 -33 36 -17 5 11 1 25
-9 36 -17 19 -22 61 -6 61 5 0 16 -13 25 -30 21 -41 46 -53 73 -34 28 19 28
49 0 77 -13 13 -23 28 -24 35 -3 39 -4 39 -55 9z m60 -55 c6 -10 6 -24 1 -32
-7 -12 -12 -11 -29 4 -12 11 -21 25 -21 33 0 19 38 16 49 -5z"/>
<path d="M2543 885 c-3 -9 -4 -17 -2 -18 77 -51 95 -81 64 -107 -13 -11 -24
-8 -64 17 -45 28 -49 29 -59 12 -10 -15 -5 -22 38 -48 28 -17 59 -31 69 -31
20 0 61 44 61 65 0 7 7 15 15 19 28 10 15 31 -43 69 -66 42 -70 43 -79 22z"/>
<path d="M447 854 c-3 -4 -4 -18 -1 -33 5 -21 0 -29 -27 -45 -29 -17 -32 -18
-41 -2 -8 14 -13 15 -24 5 -11 -9 -12 -15 -2 -26 10 -12 9 -17 -5 -25 -14 -7
-15 -13 -6 -29 7 -15 14 -17 23 -10 6 6 23 7 36 4 19 -5 22 -3 17 10 -4 11 4
23 26 39 39 27 47 37 47 64 0 22 -32 58 -43 48z"/>
<path d="M2376 750 c-63 -56 -57 -91 30 -173 56 -51 62 -54 71 -30 4 10 22 33
41 50 28 27 33 37 28 60 -15 61 -84 83 -124 40 -12 -13 -22 -29 -22 -36 0 -20
-25 -6 -28 16 -2 13 8 30 27 46 30 25 42 57 21 57 -5 0 -25 -14 -44 -30z m124
-85 c10 -12 10 -21 2 -40 -15 -32 -67 -36 -77 -5 -15 46 45 82 75 45z"/>
<path d="M474 715 c-15 -23 -15 -27 5 -68 26 -53 26 -67 3 -67 -20 0 -52 29
-52 48 0 16 -14 22 -29 13 -10 -7 -10 -14 3 -39 20 -38 53 -62 86 -62 53 0 64
40 29 104 -13 25 -17 42 -11 48 18 18 51 -2 64 -38 12 -33 31 -44 43 -24 8 12
-11 48 -43 83 -33 35 -75 36 -98 2z"/>
<path d="M2301 597 c-11 -14 -6 -24 36 -72 52 -59 55 -61 71 -42 8 9 -3 27
-42 71 -45 52 -53 57 -65 43z"/>
<path d="M654 503 c-67 -91 -69 -94 -53 -104 22 -14 26 -12 56 36 15 25 31 45
34 45 3 0 9 -35 13 -77 9 -116 20 -119 90 -22 52 74 56 83 42 97 -9 9 -17 14
-19 11 -2 -2 -19 -26 -38 -54 l-34 -50 -3 80 c-3 72 -13 105 -31 105 -4 0 -29
-30 -57 -67z"/>
<path d="M2241 541 c-12 -8 -10 -16 12 -45 29 -37 34 -65 15 -84 -21 -21 -36
-13 -69 32 -26 38 -34 43 -49 34 -16 -10 -15 -15 17 -60 19 -26 46 -51 59 -54
28 -7 74 19 74 41 0 8 6 12 13 10 6 -3 18 -1 26 4 10 7 4 22 -30 70 -46 65
-46 66 -68 52z"/>
<path d="M2421 456 c-16 -19 -6 -36 20 -36 15 0 20 6 17 22 -4 27 -21 33 -37
14z"/>
<path d="M880 414 c6 -27 5 -36 -6 -40 -8 -2 -21 -6 -29 -9 -8 -2 -20 -17 -26
-32 -17 -44 4 -78 68 -108 31 -14 57 -25 58 -23 15 17 84 171 80 178 -12 19
-36 10 -45 -16 -10 -25 -12 -25 -33 -11 -12 8 -23 27 -25 43 -3 26 -25 54 -43
54 -4 0 -3 -16 1 -36z m45 -86 c29 -13 29 -15 13 -51 -16 -33 -29 -34 -64 -4
-23 20 -25 26 -15 45 13 25 29 27 66 10z"/>
<path d="M2018 401 c-29 -26 -31 -30 -15 -37 11 -4 22 -1 30 10 14 19 58 26
64 9 2 -6 -16 -21 -41 -34 -51 -25 -57 -40 -24 -63 32 -23 71 -20 102 9 34 32
35 77 1 110 -33 34 -76 33 -117 -4z m91 -87 c-13 -16 -50 -15 -56 2 -2 5 11
17 29 26 28 13 34 13 36 1 2 -8 -2 -21 -9 -29z"/>
<path d="M1053 354 c-7 -19 -7 -18 47 -36 45 -15 57 -31 41 -57 -6 -9 -14 -10
-27 -3 -11 5 -32 12 -47 16 -47 11 -30 -25 17 -38 42 -12 51 -23 36 -46 -8
-12 -15 -12 -59 2 -44 14 -50 14 -56 0 -3 -8 -4 -16 -3 -17 8 -6 140 -47 142
-44 5 6 56 174 56 185 0 5 -32 19 -71 30 -59 19 -71 20 -76 8z"/>
<path d="M1875 350 c-26 -10 -50 -38 -41 -47 4 -4 16 -2 26 5 25 15 83 16 78
1 -2 -6 -24 -18 -48 -26 -62 -21 -66 -28 -37 -57 51 -51 137 -19 137 50 0 62
-56 98 -115 74z m85 -79 c0 -18 -33 -42 -53 -39 -31 5 -31 23 0 35 36 14 53
15 53 4z"/>
<path d="M1750 308 c0 -7 4 -30 9 -51 9 -37 0 -59 -29 -69 -6 -2 -8 -11 -5
-21 6 -14 11 -15 28 -5 12 7 33 11 46 9 20 -2 23 1 18 21 -4 13 -11 47 -17 76
-9 41 -16 52 -31 52 -10 0 -19 -6 -19 -12z"/>
<path d="M1239 303 c0 -5 -6 -50 -13 -100 -12 -92 -11 -93 9 -93 15 0 34 18
61 55 21 30 42 55 45 55 4 0 17 -25 29 -56 22 -54 43 -84 59 -84 4 0 13 37 19
83 17 115 16 127 -8 127 -17 0 -20 -7 -20 -47 0 -73 -14 -84 -35 -29 -28 72
-37 74 -80 16 -20 -27 -39 -50 -41 -50 -5 0 0 34 12 103 5 22 2 27 -15 27 -12
0 -21 -3 -22 -7z"/>
<path d="M1530 207 c0 -16 5 -19 31 -13 17 3 35 6 40 6 5 0 9 7 9 15 0 12 -10
15 -40 13 -32 -1 -40 -6 -40 -21z"/>
</g>
</svg>
